# xmcd CD database file
#
# Track frame offsets:
#	150
#	17299
#	34500
#	59067
#	77559
#	99817
#	125830
#	154765
#	171731
#	191757
#	212420
#	233668
#	253943
#
# Disc length: 3834 seconds
#
# Revision: 1
# Processed by: cddbd v1.5PL3 Copyright (c) Steve Scherf et al.
# Submitted via: CDex 1.51
#
DISCID=a90ef80d
DTITLE=Jeanne Carroll and Blues Mafia - Delivering
DYEAR=2000
DGENRE=Blues
TTITLE0=That´s Alright
TTITLE1=I´m Ready
TTITLE2=In The Dark
TTITLE3=Frankie And Johnny
TTITLE4=Mistery Train
TTITLE5=The Blues Is Alright
TTITLE6=Penny Pinchin´ Blues
TTITLE7=Bad Bad Whiskey
TTITLE8=It Hurts To Be In Love
TTITLE9=Is You Is Or Is You Ain`t My Baby
TTITLE10=I`m A Woman
TTITLE11=Money
TTITLE12=Baby Please Come Back To Me
EXTD=YEAR: 2000
EXTT0=
EXTT1=
EXTT2=
EXTT3=
EXTT4=
EXTT5=
EXTT6=
EXTT7=
EXTT8=
EXTT9=
EXTT10=
EXTT11=
EXTT12=
PLAYORDER=
